<mxfile host="app.diagrams.net" agent="Mozilla/5.0 (Windows NT 10.0; Win64; x64) AppleWebKit/537.36 (KHTML, like Gecko) Chrome/128.0.0.0 Safari/537.36" version="24.7.8">
  <diagram name="Página-1" id="M6PQLmheuG4DkBcMsSY-">
    <mxGraphModel dx="1941" dy="1603" grid="1" gridSize="10" guides="1" tooltips="1" connect="1" arrows="1" fold="1" page="1" pageScale="1" pageWidth="827" pageHeight="1169" math="0" shadow="0">
      <root>
        <mxCell id="0" />
        <mxCell id="1" parent="0" />
        <mxCell id="LekZ4-A9BiGDiFQyZQNJ-1" value="Auto" style="rounded=1;whiteSpace=wrap;html=1;" parent="1" vertex="1">
          <mxGeometry x="-140" y="-120" width="120" height="60" as="geometry" />
        </mxCell>
        <mxCell id="LekZ4-A9BiGDiFQyZQNJ-2" value="color" style="ellipse;whiteSpace=wrap;html=1;" parent="1" vertex="1">
          <mxGeometry x="-110" y="-10" width="90" height="60" as="geometry" />
        </mxCell>
        <mxCell id="LekZ4-A9BiGDiFQyZQNJ-3" value="modelo" style="ellipse;whiteSpace=wrap;html=1;" parent="1" vertex="1">
          <mxGeometry x="-190" y="-240" width="90" height="60" as="geometry" />
        </mxCell>
        <mxCell id="LekZ4-A9BiGDiFQyZQNJ-4" value="marca" style="ellipse;whiteSpace=wrap;html=1;" parent="1" vertex="1">
          <mxGeometry x="-70" y="-240" width="90" height="60" as="geometry" />
        </mxCell>
        <mxCell id="LekZ4-A9BiGDiFQyZQNJ-5" value="&lt;u&gt;matricula&lt;/u&gt;" style="ellipse;whiteSpace=wrap;html=1;" parent="1" vertex="1">
          <mxGeometry x="-220" y="-10" width="90" height="60" as="geometry" />
        </mxCell>
        <mxCell id="LekZ4-A9BiGDiFQyZQNJ-7" value="Precio" style="ellipse;whiteSpace=wrap;html=1;" parent="1" vertex="1">
          <mxGeometry x="-10" y="-10" width="90" height="60" as="geometry" />
        </mxCell>
        <mxCell id="LekZ4-A9BiGDiFQyZQNJ-8" value="" style="endArrow=none;html=1;rounded=0;entryX=0.95;entryY=0.983;entryDx=0;entryDy=0;entryPerimeter=0;" parent="1" target="LekZ4-A9BiGDiFQyZQNJ-1" edge="1">
          <mxGeometry width="50" height="50" relative="1" as="geometry">
            <mxPoint x="20" y="-10" as="sourcePoint" />
            <mxPoint x="70" y="-60" as="targetPoint" />
          </mxGeometry>
        </mxCell>
        <mxCell id="LekZ4-A9BiGDiFQyZQNJ-9" value="" style="endArrow=none;html=1;rounded=0;entryX=0.575;entryY=0.983;entryDx=0;entryDy=0;entryPerimeter=0;" parent="1" target="LekZ4-A9BiGDiFQyZQNJ-1" edge="1">
          <mxGeometry width="50" height="50" relative="1" as="geometry">
            <mxPoint x="-70" y="-10" as="sourcePoint" />
            <mxPoint x="-20" y="-60" as="targetPoint" />
          </mxGeometry>
        </mxCell>
        <mxCell id="LekZ4-A9BiGDiFQyZQNJ-10" value="" style="endArrow=none;html=1;rounded=0;" parent="1" edge="1">
          <mxGeometry width="50" height="50" relative="1" as="geometry">
            <mxPoint x="-160" y="-10" as="sourcePoint" />
            <mxPoint x="-110" y="-60" as="targetPoint" />
          </mxGeometry>
        </mxCell>
        <mxCell id="LekZ4-A9BiGDiFQyZQNJ-11" value="" style="endArrow=none;html=1;rounded=0;entryX=0.5;entryY=1;entryDx=0;entryDy=0;" parent="1" target="LekZ4-A9BiGDiFQyZQNJ-4" edge="1">
          <mxGeometry width="50" height="50" relative="1" as="geometry">
            <mxPoint x="-80" y="-120" as="sourcePoint" />
            <mxPoint x="-30" y="-170" as="targetPoint" />
          </mxGeometry>
        </mxCell>
        <mxCell id="LekZ4-A9BiGDiFQyZQNJ-12" value="" style="endArrow=none;html=1;rounded=0;entryX=0.5;entryY=1;entryDx=0;entryDy=0;" parent="1" target="LekZ4-A9BiGDiFQyZQNJ-3" edge="1">
          <mxGeometry width="50" height="50" relative="1" as="geometry">
            <mxPoint x="-120" y="-120" as="sourcePoint" />
            <mxPoint x="-70" y="-170" as="targetPoint" />
          </mxGeometry>
        </mxCell>
        <mxCell id="LekZ4-A9BiGDiFQyZQNJ-13" value="Cliente" style="rounded=1;whiteSpace=wrap;html=1;" parent="1" vertex="1">
          <mxGeometry x="607" y="-120" width="120" height="60" as="geometry" />
        </mxCell>
        <mxCell id="LekZ4-A9BiGDiFQyZQNJ-14" value="Dni" style="ellipse;whiteSpace=wrap;html=1;" parent="1" vertex="1">
          <mxGeometry x="517" y="-240" width="90" height="60" as="geometry" />
        </mxCell>
        <mxCell id="LekZ4-A9BiGDiFQyZQNJ-15" value="Nombre" style="ellipse;whiteSpace=wrap;html=1;" parent="1" vertex="1">
          <mxGeometry x="697" y="-240" width="90" height="60" as="geometry" />
        </mxCell>
        <mxCell id="LekZ4-A9BiGDiFQyZQNJ-16" value="Dirección" style="ellipse;whiteSpace=wrap;html=1;" parent="1" vertex="1">
          <mxGeometry x="497" width="90" height="60" as="geometry" />
        </mxCell>
        <mxCell id="LekZ4-A9BiGDiFQyZQNJ-17" value="Ciudad" style="ellipse;whiteSpace=wrap;html=1;" parent="1" vertex="1">
          <mxGeometry x="617" width="90" height="60" as="geometry" />
        </mxCell>
        <mxCell id="LekZ4-A9BiGDiFQyZQNJ-18" value="Numero de telefono" style="ellipse;whiteSpace=wrap;html=1;" parent="1" vertex="1">
          <mxGeometry x="737" width="90" height="60" as="geometry" />
        </mxCell>
        <mxCell id="LekZ4-A9BiGDiFQyZQNJ-19" value="" style="endArrow=none;html=1;rounded=0;entryX=1;entryY=1;entryDx=0;entryDy=0;exitX=0.389;exitY=0.05;exitDx=0;exitDy=0;exitPerimeter=0;" parent="1" source="LekZ4-A9BiGDiFQyZQNJ-18" target="LekZ4-A9BiGDiFQyZQNJ-13" edge="1">
          <mxGeometry width="50" height="50" relative="1" as="geometry">
            <mxPoint x="777" y="10" as="sourcePoint" />
            <mxPoint x="817" y="-50" as="targetPoint" />
          </mxGeometry>
        </mxCell>
        <mxCell id="LekZ4-A9BiGDiFQyZQNJ-20" value="" style="endArrow=none;html=1;rounded=0;entryX=0.5;entryY=1;entryDx=0;entryDy=0;" parent="1" target="LekZ4-A9BiGDiFQyZQNJ-13" edge="1">
          <mxGeometry width="50" height="50" relative="1" as="geometry">
            <mxPoint x="657" as="sourcePoint" />
            <mxPoint x="707" y="-50" as="targetPoint" />
          </mxGeometry>
        </mxCell>
        <mxCell id="LekZ4-A9BiGDiFQyZQNJ-21" value="" style="endArrow=none;html=1;rounded=0;entryX=0;entryY=1;entryDx=0;entryDy=0;" parent="1" target="LekZ4-A9BiGDiFQyZQNJ-13" edge="1">
          <mxGeometry width="50" height="50" relative="1" as="geometry">
            <mxPoint x="547" as="sourcePoint" />
            <mxPoint x="617" y="-70" as="targetPoint" />
            <Array as="points">
              <mxPoint x="567" y="-20" />
            </Array>
          </mxGeometry>
        </mxCell>
        <mxCell id="LekZ4-A9BiGDiFQyZQNJ-22" value="" style="endArrow=none;html=1;rounded=0;entryX=0.356;entryY=1.017;entryDx=0;entryDy=0;entryPerimeter=0;" parent="1" target="LekZ4-A9BiGDiFQyZQNJ-15" edge="1">
          <mxGeometry width="50" height="50" relative="1" as="geometry">
            <mxPoint x="677" y="-120" as="sourcePoint" />
            <mxPoint x="727" y="-170" as="targetPoint" />
          </mxGeometry>
        </mxCell>
        <mxCell id="LekZ4-A9BiGDiFQyZQNJ-23" value="" style="endArrow=none;html=1;rounded=0;entryX=0.644;entryY=0.983;entryDx=0;entryDy=0;entryPerimeter=0;" parent="1" target="LekZ4-A9BiGDiFQyZQNJ-14" edge="1">
          <mxGeometry width="50" height="50" relative="1" as="geometry">
            <mxPoint x="617" y="-120" as="sourcePoint" />
            <mxPoint x="667" y="-170" as="targetPoint" />
          </mxGeometry>
        </mxCell>
        <mxCell id="LekZ4-A9BiGDiFQyZQNJ-24" value="Revisión" style="rounded=0;whiteSpace=wrap;html=1;" parent="1" vertex="1">
          <mxGeometry x="295" y="80" width="120" height="60" as="geometry" />
        </mxCell>
        <mxCell id="LekZ4-A9BiGDiFQyZQNJ-25" value="&lt;u&gt;Código revisión&lt;/u&gt;" style="ellipse;whiteSpace=wrap;html=1;" parent="1" vertex="1">
          <mxGeometry x="185" y="200" width="90" height="60" as="geometry" />
        </mxCell>
        <mxCell id="LekZ4-A9BiGDiFQyZQNJ-26" value="Cambio filtro" style="ellipse;whiteSpace=wrap;html=1;" parent="1" vertex="1">
          <mxGeometry x="295" y="200" width="90" height="60" as="geometry" />
        </mxCell>
        <mxCell id="LekZ4-A9BiGDiFQyZQNJ-27" value="Cambio aceite" style="ellipse;whiteSpace=wrap;html=1;" parent="1" vertex="1">
          <mxGeometry x="407" y="200" width="90" height="60" as="geometry" />
        </mxCell>
        <mxCell id="LekZ4-A9BiGDiFQyZQNJ-28" value="" style="endArrow=none;html=1;rounded=0;entryX=1;entryY=1;entryDx=0;entryDy=0;exitX=0.389;exitY=0.05;exitDx=0;exitDy=0;exitPerimeter=0;" parent="1" edge="1">
          <mxGeometry width="50" height="50" relative="1" as="geometry">
            <mxPoint x="450.01" y="203" as="sourcePoint" />
            <mxPoint x="405" y="140" as="targetPoint" />
          </mxGeometry>
        </mxCell>
        <mxCell id="LekZ4-A9BiGDiFQyZQNJ-29" value="" style="endArrow=none;html=1;rounded=0;entryX=0.5;entryY=1;entryDx=0;entryDy=0;" parent="1" edge="1">
          <mxGeometry width="50" height="50" relative="1" as="geometry">
            <mxPoint x="335" y="200" as="sourcePoint" />
            <mxPoint x="345" y="140" as="targetPoint" />
          </mxGeometry>
        </mxCell>
        <mxCell id="LekZ4-A9BiGDiFQyZQNJ-30" value="" style="endArrow=none;html=1;rounded=0;entryX=0;entryY=1;entryDx=0;entryDy=0;" parent="1" edge="1">
          <mxGeometry width="50" height="50" relative="1" as="geometry">
            <mxPoint x="245" y="200" as="sourcePoint" />
            <mxPoint x="305" y="140" as="targetPoint" />
            <Array as="points">
              <mxPoint x="265" y="180" />
            </Array>
          </mxGeometry>
        </mxCell>
        <mxCell id="LekZ4-A9BiGDiFQyZQNJ-31" value="Compra" style="rhombus;whiteSpace=wrap;html=1;" parent="1" vertex="1">
          <mxGeometry x="230" y="-280" width="80" height="80" as="geometry" />
        </mxCell>
        <mxCell id="LekZ4-A9BiGDiFQyZQNJ-32" value="" style="endArrow=none;html=1;rounded=0;entryX=0;entryY=0.5;entryDx=0;entryDy=0;" parent="1" target="LekZ4-A9BiGDiFQyZQNJ-31" edge="1">
          <mxGeometry width="50" height="50" relative="1" as="geometry">
            <mxPoint x="-20" y="-90" as="sourcePoint" />
            <mxPoint x="20" y="-210" as="targetPoint" />
          </mxGeometry>
        </mxCell>
        <mxCell id="LekZ4-A9BiGDiFQyZQNJ-33" value="" style="endArrow=none;html=1;rounded=0;entryX=1;entryY=0.5;entryDx=0;entryDy=0;exitX=0;exitY=0.75;exitDx=0;exitDy=0;" parent="1" source="LekZ4-A9BiGDiFQyZQNJ-13" target="LekZ4-A9BiGDiFQyZQNJ-31" edge="1">
          <mxGeometry width="50" height="50" relative="1" as="geometry">
            <mxPoint x="497" y="-100" as="sourcePoint" />
            <mxPoint x="547" y="-150" as="targetPoint" />
          </mxGeometry>
        </mxCell>
        <mxCell id="LekZ4-A9BiGDiFQyZQNJ-34" value="1" style="rounded=1;whiteSpace=wrap;html=1;" parent="1" vertex="1">
          <mxGeometry x="540" y="-140" width="63" height="20" as="geometry" />
        </mxCell>
        <mxCell id="LekZ4-A9BiGDiFQyZQNJ-35" value="1" style="rounded=1;whiteSpace=wrap;html=1;" parent="1" vertex="1">
          <mxGeometry x="3.5" y="-170" width="63" height="20" as="geometry" />
        </mxCell>
        <mxCell id="LekZ4-A9BiGDiFQyZQNJ-36" value="N" style="rounded=1;whiteSpace=wrap;html=1;" parent="1" vertex="1">
          <mxGeometry x="30" y="-120" width="63" height="20" as="geometry" />
        </mxCell>
        <mxCell id="LekZ4-A9BiGDiFQyZQNJ-37" value="1" style="rounded=1;whiteSpace=wrap;html=1;" parent="1" vertex="1">
          <mxGeometry x="510.5" y="-80" width="63" height="20" as="geometry" />
        </mxCell>
        <mxCell id="LekZ4-A9BiGDiFQyZQNJ-38" value="N:1" style="rounded=1;whiteSpace=wrap;html=1;" parent="1" vertex="1">
          <mxGeometry x="220" y="-330" width="63" height="20" as="geometry" />
        </mxCell>
        <mxCell id="LekZ4-A9BiGDiFQyZQNJ-39" value="Revisa" style="rhombus;whiteSpace=wrap;html=1;" parent="1" vertex="1">
          <mxGeometry x="170" y="-50" width="80" height="80" as="geometry" />
        </mxCell>
        <mxCell id="LekZ4-A9BiGDiFQyZQNJ-41" value="" style="endArrow=none;html=1;rounded=0;entryX=0;entryY=0.5;entryDx=0;entryDy=0;" parent="1" target="LekZ4-A9BiGDiFQyZQNJ-39" edge="1">
          <mxGeometry width="50" height="50" relative="1" as="geometry">
            <mxPoint x="-23.5" y="-65" as="sourcePoint" />
            <mxPoint x="26.5" y="-115" as="targetPoint" />
          </mxGeometry>
        </mxCell>
        <mxCell id="LekZ4-A9BiGDiFQyZQNJ-43" value="1" style="rounded=1;whiteSpace=wrap;html=1;" parent="1" vertex="1">
          <mxGeometry x="-10" y="-90" width="63" height="20" as="geometry" />
        </mxCell>
        <mxCell id="LekZ4-A9BiGDiFQyZQNJ-44" value="1" style="rounded=1;whiteSpace=wrap;html=1;" parent="1" vertex="1">
          <mxGeometry x="283" y="30" width="63" height="20" as="geometry" />
        </mxCell>
        <mxCell id="LekZ4-A9BiGDiFQyZQNJ-45" value="N" style="rounded=1;whiteSpace=wrap;html=1;" parent="1" vertex="1">
          <mxGeometry x="17" y="-40" width="63" height="20" as="geometry" />
        </mxCell>
        <mxCell id="LekZ4-A9BiGDiFQyZQNJ-46" value="1" style="rounded=1;whiteSpace=wrap;html=1;" parent="1" vertex="1">
          <mxGeometry x="220" y="80" width="63" height="20" as="geometry" />
        </mxCell>
        <mxCell id="LekZ4-A9BiGDiFQyZQNJ-48" value="N:1" style="rounded=1;whiteSpace=wrap;html=1;" parent="1" vertex="1">
          <mxGeometry x="107" y="-60" width="63" height="20" as="geometry" />
        </mxCell>
        <mxCell id="LekZ4-A9BiGDiFQyZQNJ-50" value="" style="endArrow=none;html=1;rounded=0;entryX=1;entryY=0.5;entryDx=0;entryDy=0;" parent="1" target="LekZ4-A9BiGDiFQyZQNJ-39" edge="1">
          <mxGeometry width="50" height="50" relative="1" as="geometry">
            <mxPoint x="295" y="80" as="sourcePoint" />
            <mxPoint x="148" as="targetPoint" />
          </mxGeometry>
        </mxCell>
        <mxCell id="RBPzKNLS5OJrT07_gis--1" value="&lt;u&gt;Código interno&lt;/u&gt;" style="ellipse;whiteSpace=wrap;html=1;" vertex="1" parent="1">
          <mxGeometry x="617" y="-300" width="90" height="60" as="geometry" />
        </mxCell>
        <mxCell id="RBPzKNLS5OJrT07_gis--2" value="" style="endArrow=none;html=1;rounded=0;" edge="1" parent="1">
          <mxGeometry width="50" height="50" relative="1" as="geometry">
            <mxPoint x="660" y="-240" as="sourcePoint" />
            <mxPoint x="666.19" y="-120.19" as="targetPoint" />
          </mxGeometry>
        </mxCell>
      </root>
    </mxGraphModel>
  </diagram>
</mxfile>
